<svg width="328" height="200" viewBox="0 0 328 200" fill="none" xmlns="http://www.w3.org/2000/svg">
<rect x="1" y="1" width="326" height="198" rx="3" fill="white" stroke="#5C5C5C" stroke-width="2"/>
<path fill-rule="evenodd" clip-rule="evenodd" d="M181.411 89.6567C184.661 89.6567 187.295 87.495 187.295 84.8284C187.295 82.1617 184.661 80 181.411 80C178.161 80 175.526 82.1617 175.526 84.8284C175.526 87.495 178.161 89.6567 181.411 89.6567ZM165.812 118.895H130.766C129.108 118.895 128.17 116.995 129.178 115.679L152.239 85.5559C153.025 84.5292 154.557 84.4996 155.372 85.5038C158.784 89.712 167.045 99.9141 173.806 108.391L180.748 99.2704C181.604 98.1456 183.519 98.0096 184.394 99.0115L199.96 116.823C200.98 117.99 199.815 119.717 197.996 119.731L183.189 119.85L165.202 119.695L165.812 118.895Z" fill="#5C5C5C"/>
</svg>
