<svg width="888" height="626" viewBox="0 0 888 626" fill="none" xmlns="http://www.w3.org/2000/svg">
<g clip-path="url(#clip0)">
<path d="M872.54 588.88C872.55 591.385 872.067 593.867 871.118 596.185C870.168 598.502 868.771 600.61 867.007 602.388C865.242 604.166 863.145 605.578 860.834 606.544C858.523 607.511 856.044 608.012 853.54 608.02H19.5398C17.0334 608.012 14.5532 607.51 12.2411 606.542C9.92906 605.575 7.83055 604.161 6.06571 602.381C4.30087 600.601 2.90437 598.491 1.95616 596.171C1.00796 593.851 0.526651 591.366 0.539814 588.86V19.16C0.529288 16.6553 1.01254 14.1731 1.96193 11.8553C2.91132 9.53755 4.30823 7.42962 6.0728 5.65204C7.83738 3.87446 9.93501 2.46209 12.2458 1.49571C14.5565 0.529332 17.0351 0.0278821 19.5398 0.0200195H853.54C856.046 0.027875 858.526 0.529989 860.839 1.49762C863.151 2.46525 865.249 3.8794 867.014 5.6591C868.779 7.4388 870.175 9.54911 871.123 11.8692C872.072 14.1893 872.553 16.6737 872.54 19.18" fill="url(#paint0_linear)"/>
<path d="M862.73 579.56C862.73 584.472 860.779 589.182 857.306 592.655C853.833 596.129 849.122 598.08 844.21 598.08H29.4702C24.5584 598.08 19.8477 596.129 16.3746 592.655C12.9014 589.182 10.9502 584.472 10.9502 579.56V28.7998C10.9502 23.888 12.9014 19.1774 16.3746 15.7042C19.8477 12.231 24.5584 10.2798 29.4702 10.2798H844.21C849.122 10.2798 853.833 12.231 857.306 15.7042C860.779 19.1774 862.73 23.888 862.73 28.7998" fill="#BC864A"/>
<path d="M822.16 36.6201H52.3402C47.4525 36.6201 43.4902 40.5824 43.4902 45.4701V565.66C43.4902 570.548 47.4525 574.51 52.3402 574.51H822.16C827.048 574.51 831.01 570.548 831.01 565.66V45.4701C831.01 40.5824 827.048 36.6201 822.16 36.6201Z" fill="#241F21"/>
<path d="M811.65 49H62.0399C57.1522 49 53.1899 52.9623 53.1899 57.85V550.51C53.1899 555.398 57.1522 559.36 62.0399 559.36H811.65C816.538 559.36 820.5 555.398 820.5 550.51V57.85C820.5 52.9623 816.538 49 811.65 49Z" fill="#BC864A"/>
<path d="M10.54 554.68L224.75 309.21C228.445 304.976 232.94 301.513 237.977 299.022C243.014 296.531 248.493 295.06 254.101 294.694C259.708 294.328 265.333 295.074 270.651 296.889C275.969 298.704 280.876 301.552 285.09 305.27L345.09 358.2C352.748 364.958 362.578 368.743 372.791 368.866C383.004 368.989 392.921 365.442 400.74 358.87L584.06 204.75C592.504 197.659 603.365 194.115 614.366 194.86C625.367 195.606 635.651 200.584 643.06 208.75L868.06 456.39C874.316 463.277 878.148 472.022 878.97 481.29L887.65 578.98C888.175 584.875 887.466 590.816 885.57 596.422C883.673 602.029 880.63 607.18 876.634 611.546C872.639 615.913 867.777 619.4 862.36 621.785C856.943 624.17 851.089 625.401 845.17 625.4H42.65C31.5579 625.402 20.9014 621.082 12.9423 613.356C4.98314 605.63 0.347802 595.107 0.0200323 584.02V584.02C-0.301525 573.263 3.45645 562.782 10.54 554.68V554.68Z" fill="#241F21"/>
<path d="M145.58 178.35C171.825 178.35 193.1 157.075 193.1 130.83C193.1 104.585 171.825 83.3101 145.58 83.3101C119.335 83.3101 98.0601 104.585 98.0601 130.83C98.0601 157.075 119.335 178.35 145.58 178.35Z" fill="#241F21"/>
</g>
<defs>
<linearGradient id="paint0_linear" x1="436.54" y1="608.04" x2="436.54" y2="1.39424e-05" gradientUnits="userSpaceOnUse">
<stop stop-color="#808080" stop-opacity="0.25"/>
<stop offset="0.54" stop-color="#808080" stop-opacity="0.12"/>
<stop offset="1" stop-color="#808080" stop-opacity="0.1"/>
</linearGradient>
<clipPath id="clip0">
<rect width="887.82" height="625.36" fill="white"/>
</clipPath>
</defs>
</svg>
